<svg width="100%" height="100%" id="svg" viewBox="0 0 1440 590" xmlns="http://www.w3.org/2000/svg" class="transition duration-300 ease-in-out delay-150"><defs><linearGradient id="gradient" x1="0%" y1="50%" x2="100%" y2="50%"><stop offset="5%" stop-color="#fdf500"></stop><stop offset="95%" stop-color="#37ebf3"></stop></linearGradient></defs><path d="M 0,600 L 0,150 C 94.17224880382778,177.79904306220095 188.34449760765557,205.59808612440193 299,191 C 409.65550239234443,176.40191387559807 536.7942583732057,119.4066985645933 614,105 C 691.2057416267943,90.5933014354067 718.4784688995217,118.77511961722487 817,151 C 915.5215311004783,183.22488038277513 1085.291866028708,219.4928229665072 1201,220 C 1316.708133971292,220.5071770334928 1378.354066985646,185.2535885167464 1440,150 L 1440,600 L 0,600 Z" stroke="none" stroke-width="0" fill="url(#gradient)" fill-opacity="0.53" class="transition-all duration-300 ease-in-out delay-150 path-0"></path><defs><linearGradient id="gradient" x1="0%" y1="50%" x2="100%" y2="50%"><stop offset="5%" stop-color="#fdf500"></stop><stop offset="95%" stop-color="#37ebf3"></stop></linearGradient></defs><path d="M 0,600 L 0,350 C 78.98564593301438,342.63157894736844 157.97129186602876,335.2631578947368 242,319 C 326.02870813397124,302.7368421052632 415.1004784688994,277.57894736842104 526,297 C 636.8995215311006,316.42105263157896 769.6267942583734,380.42105263157896 880,380 C 990.3732057416266,379.57894736842104 1078.3923444976076,314.7368421052632 1168,299 C 1257.6076555023924,283.2631578947368 1348.8038277511962,316.63157894736844 1440,350 L 1440,600 L 0,600 Z" stroke="none" stroke-width="0" fill="url(#gradient)" fill-opacity="1" class="transition-all duration-300 ease-in-out delay-150 path-1"></path></svg>